<?xml version="1.0" encoding="utf-8"?>
<!-- Generator: Adobe Illustrator 15.1.0, SVG Export Plug-In  -->
<!DOCTYPE svg PUBLIC "-//W3C//DTD SVG 1.1//EN" "http://www.w3.org/Graphics/SVG/1.1/DTD/svg11.dtd" [
	<!ENTITY ns_flows "http://ns.adobe.com/Flows/1.0/">
]>
<svg version="1.1"
	 xmlns="http://www.w3.org/2000/svg" xmlns:xlink="http://www.w3.org/1999/xlink" xmlns:a="http://ns.adobe.com/AdobeSVGViewerExtensions/3.0/"
	 x="0px" y="0px" width="200px" height="200px" viewBox="0.25 0.25 200 200"
	 overflow="visible" enable-background="new 0.25 0.25 200 200" xml:space="preserve">
<defs>
</defs>
<g id="XMLID_2_">
	<g>
		<path fill="#FFFFFF" d="M100.25,0.25c55.23,0,100,44.77,100,100c0,55.23-44.77,100-100,100c-55.23,0-100-44.77-100-100
			C0.25,45.02,45.02,0.25,100.25,0.25z M179.96,144.36v-9.58h-16.64c-3.11,0-5.63-0.92-7.561-2.771
			c-1.939-1.85-2.899-4.069-2.899-6.68V75.17c0-2.6,0.96-4.83,2.899-6.68c1.931-1.85,4.45-2.77,7.561-2.77h16.64v-9.58h-15.38
			c-7.311,0-12.92,1.78-16.83,5.35c-3.9,3.58-5.86,8.93-5.86,16.07v45.38c0,7.14,1.96,12.489,5.86,16.06
			c3.91,3.58,9.52,5.36,16.83,5.36H179.96z M129.29,144.36l-17.521-38.69c7.561-2.35,11.351-8.28,11.351-17.77V75.8
			c0-13.11-7.23-19.66-21.68-19.66H78.88v88.22h10.96V107.81h11.22l16.26,36.551H129.29z M58.71,122.94v-66.8H28.72v9.45h19.03
			v59.74c0,2.61-0.97,4.83-2.9,6.68c-1.93,1.851-4.45,2.771-7.56,2.771H19.96v9.58h16.07c7.31,0,12.92-1.78,16.82-5.36
			C56.76,135.43,58.71,130.08,58.71,122.94z"/>
		<path fill="#FFFFFF" d="M112.15,74.67v14.49c0,3.19-0.74,5.53-2.21,6.99c-1.471,1.48-3.801,2.21-6.99,2.21H89.84V65.59h13.11
			c3.189,0,5.52,0.72,6.99,2.14C111.41,69.16,112.15,71.47,112.15,74.67z"/>
	</g>
	<g>
	</g>
</g>
</svg>
